<?xml version="1.0" standalone="no"?>
<!DOCTYPE svg PUBLIC "-//W3C//DTD SVG 20010904//EN"
 "http://www.w3.org/TR/2001/REC-SVG-20010904/DTD/svg10.dtd">
<svg version="1.0" xmlns="http://www.w3.org/2000/svg"
 width="700.000000pt" height="700.000000pt" viewBox="0 0 700.000000 700.000000"
 preserveAspectRatio="xMidYMid meet">
<metadata>
Created by potrace 1.14, written by Peter Selinger 2001-2017
</metadata>
<g transform="translate(0.000000,700.000000) scale(0.100000,-0.100000)"
fill="#000000" stroke="none">
<path d="M5097 5834 c-1 -1 -31 -4 -67 -8 -168 -15 -313 -83 -438 -207 -139
-137 -213 -313 -214 -509 0 -107 3 -129 33 -225 93 -302 369 -504 694 -507
460 -4 806 426 711 882 -59 281 -296 509 -581 559 -61 11 -134 19 -138 15z
m100 -454 c143 -47 229 -209 186 -354 -64 -215 -331 -284 -485 -125 -57 59
-81 119 -82 204 -1 199 190 336 381 275z"/>
<path d="M4129 4079 c-72 -11 -99 -30 -218 -156 -174 -186 -309 -362 -446
-583 -69 -112 -198 -362 -244 -475 -19 -44 -41 -98 -51 -120 -43 -101 -144
-407 -220 -670 -18 -60 -35 -113 -39 -117 -3 -4 -33 54 -65 130 -87 204 -235
502 -311 627 -184 304 -411 533 -641 649 -158 79 -286 112 -474 121 -107 5
-200 -47 -236 -134 -34 -82 -9 -188 58 -247 46 -40 84 -53 178 -58 92 -6 118
-11 195 -38 248 -87 460 -327 675 -763 54 -110 131 -276 170 -370 158 -373
257 -582 298 -630 40 -47 83 -68 151 -73 117 -8 179 40 254 198 68 141 124
301 218 620 140 477 243 740 405 1031 35 64 71 122 79 129 8 7 15 16 15 21 0
38 275 382 421 529 48 47 71 104 70 168 0 33 -6 70 -13 83 -49 93 -136 142
-229 128z"/>
</g>
</svg>
